<?xml version="1.0" standalone="no"?>
<!DOCTYPE svg PUBLIC "-//W3C//DTD SVG 20010904//EN"
 "http://www.w3.org/TR/2001/REC-SVG-20010904/DTD/svg10.dtd">
<svg version="1.0" xmlns="http://www.w3.org/2000/svg"
 width="512.000000pt" height="512.000000pt" viewBox="0 0 512.000000 512.000000"
 preserveAspectRatio="xMidYMid meet">

<g transform="translate(0.000000,512.000000) scale(0.100000,-0.100000)"
fill="#000000" stroke="none">
<path d="M4524 5111 c-104 -27 -206 -118 -243 -216 -62 -164 16 -353 178 -432
48 -24 69 -28 141 -28 76 0 92 3 152 33 315 155 221 626 -129 647 -37 2 -82 1
-99 -4z m196 -139 c24 -15 58 -47 75 -71 27 -39 30 -50 30 -125 0 -74 -3 -87
-28 -125 -54 -82 -160 -125 -249 -101 -153 42 -225 218 -142 346 70 108 207
141 314 76z"/>
<path d="M2230 4754 c-507 -76 -963 -339 -1282 -739 -182 -229 -329 -540 -386
-820 -60 -290 -57 -611 9 -867 48 -189 140 -392 257 -565 161 -239 305 -392
772 -823 184 -170 320 -299 320 -305 0 -3 -180 -5 -400 -5 -375 0 -402 -1
-453 -20 -76 -29 -130 -79 -169 -157 -28 -57 -32 -77 -32 -138 1 -125 68 -229
184 -284 l55 -26 1430 0 1430 0 50 25 c64 32 124 92 155 155 36 75 35 189 -3
267 -30 62 -83 115 -149 150 -42 23 -48 23 -481 28 l-439 5 289 266 c319 295
582 559 686 689 223 278 355 557 413 871 21 119 29 381 15 514 -99 922 -801
1653 -1710 1779 -139 20 -429 20 -561 0z m1641 -671 c13 -16 12 -17 -3 -4 -10
7 -18 15 -18 17 0 8 8 3 21 -13z m-1833 -620 c3 -68 1 -73 -17 -73 -30 0 -54
-41 -42 -72 12 -33 28 -38 115 -38 79 0 116 17 116 52 0 25 -27 58 -47 58 -10
0 -13 19 -13 75 l0 75 353 -2 352 -3 3 -68 c3 -64 2 -68 -22 -77 -24 -9 -46
-37 -46 -59 0 -6 9 -20 20 -31 17 -17 33 -20 100 -20 67 0 83 3 100 20 11 11
20 28 20 37 0 20 -28 53 -47 53 -10 0 -13 19 -13 76 l0 76 119 -4 c128 -4 155
-14 188 -65 16 -24 18 -61 21 -353 l2 -325 -365 -517 -366 -518 -385 0 c-422
0 -428 1 -459 60 -22 43 -23 1606 -1 1649 31 58 66 70 211 68 l100 -2 3 -72z
m2359 -715 c-2 -13 -4 -3 -4 22 0 25 2 35 4 23 2 -13 2 -33 0 -45z m-1109
-904 c-8 -24 -26 -47 -47 -61 -33 -22 -40 -23 -284 -23 l-249 0 18 28 c19 29
474 675 533 757 l36 50 3 -357 c2 -265 -1 -365 -10 -394z m-1126 -1451 c131
-144 228 -260 228 -274 0 -12 -1202 -12 -1253 0 -127 30 -194 169 -137 286 23
49 71 91 117 105 15 4 231 9 478 9 l450 1 117 -127z m1783 116 c55 -15 119
-83 134 -142 27 -109 -38 -217 -149 -247 -24 -6 -270 -9 -671 -8 l-633 3 84
100 c46 55 126 146 178 203 l94 102 462 0 c304 0 475 -4 501 -11z"/>
<path d="M2678 2608 c-30 -25 -448 -627 -448 -647 0 -39 53 -66 86 -43 6 4
109 146 229 316 146 207 218 317 218 334 0 43 -51 66 -85 40z"/>
<path d="M369 1364 c-27 -8 -68 -33 -97 -59 -65 -58 -96 -127 -95 -215 0 -114
54 -199 158 -251 58 -28 71 -31 137 -27 86 5 136 26 191 81 57 57 81 117 81
202 0 56 -6 80 -27 121 -67 131 -209 191 -348 148z m143 -104 c41 -12 104 -75
114 -115 11 -44 -2 -121 -25 -154 -66 -93 -216 -92 -282 1 -30 41 -38 132 -16
174 30 57 95 101 152 103 11 1 36 -4 57 -9z"/>
</g>
</svg>
