<?xml version="1.0" standalone="no"?>
<!DOCTYPE svg PUBLIC "-//W3C//DTD SVG 20010904//EN"
 "http://www.w3.org/TR/2001/REC-SVG-20010904/DTD/svg10.dtd">
<svg version="1.0" xmlns="http://www.w3.org/2000/svg"
 width="1080.000000pt" height="1080.000000pt" viewBox="0 0 1080.000000 1080.000000"
 preserveAspectRatio="xMidYMid meet">

<g transform="translate(0.000000,1080.000000) scale(0.100000,-0.100000)"
fill="#000000" stroke="none">
<path d="M4980 10725 c-286 -28 -565 -76 -845 -146 -491 -122 -1078 -382
-1510 -668 -534 -355 -959 -753 -1328 -1246 -194 -259 -324 -471 -481 -785
-276 -552 -436 -1098 -513 -1745 -25 -215 -25 -865 0 -1080 30 -255 84 -563
126 -715 5 -19 15 -54 21 -77 6 -24 14 -43 18 -43 4 0 -7 60 -25 133 -67 264
-113 560 -134 862 -18 261 0 877 26 904 3 2 47 -1 98 -8 370 -50 564 -72 782
-86 138 -9 268 -18 291 -21 l41 -5 7 -82 c19 -223 72 -558 131 -820 46 -210
105 -430 112 -423 2 2 -11 62 -31 133 -88 321 -152 670 -191 1038 -8 77 -15
143 -15 147 0 4 120 5 268 2 498 -12 1147 30 1682 107 74 10 138 19 142 19 4
0 -4 -22 -17 -48 -107 -212 -241 -1245 -470 -3612 -88 -910 -166 -1687 -201
-2011 -40 -358 -39 -369 18 -396 37 -18 7470 12 7508 30 13 7 31 24 39 39 14
23 13 45 -7 215 -21 175 -124 1074 -227 1993 -262 2336 -438 3542 -546 3753
-23 44 -64 78 -114 92 -97 29 -496 61 -1002 81 l-171 7 -6 126 c-37 738 -133
1118 -349 1382 -23 28 -52 64 -65 79 l-23 28 108 78 c59 42 166 122 237 176
l129 99 30 -48 c141 -225 355 -645 457 -896 35 -86 68 -157 72 -157 9 0 -84
226 -174 417 -81 174 -228 453 -312 592 -31 52 -55 98 -54 102 2 3 57 51 123
104 169 139 386 328 545 476 l136 127 81 -97 c298 -356 577 -806 748 -1206 46
-106 65 -141 65 -118 0 10 -56 139 -126 288 -15 33 -61 123 -102 200 -456 853
-1149 1569 -1981 2045 -676 387 -1401 610 -2180 670 -183 14 -675 11 -841 -5z
m722 -62 l97 -6 -25 -19 c-13 -11 -24 -25 -24 -33 0 -7 -20 -25 -44 -39 l-44
-26 -128 30 c-146 33 -288 56 -417 66 -48 4 -86 9 -83 11 17 17 486 29 668 16z
m453 -39 c166 -20 401 -64 580 -108 128 -32 423 -122 435 -133 5 -5 7 -3 -162
-135 l-125 -97 -105 57 c-58 31 -271 138 -474 237 -203 99 -371 181 -374 183
-13 9 29 21 60 17 19 -3 94 -12 165 -21z m-940 -69 c149 -17 335 -51 348 -64
8 -8 -119 -83 -324 -190 l-134 -70 -76 49 c-168 108 -354 196 -519 243 l-85
25 48 7 c180 27 503 27 742 0z m-830 -75 c193 -28 428 -118 609 -235 l60 -38
-85 -40 c-130 -61 -304 -135 -419 -179 -167 -64 -323 -118 -327 -114 -6 6
-193 570 -193 583 0 27 221 42 355 23z m1412 -46 c65 -19 156 -49 203 -65 81
-29 716 -337 709 -343 -2 -2 -71 -48 -154 -103 -180 -120 -440 -278 -587 -356
-105 -56 -107 -57 -121 -37 -8 11 -70 82 -138 157 -135 148 -306 309 -448 423
-50 40 -91 75 -91 79 0 3 62 38 138 78 75 40 187 101 247 137 61 36 113 65
117 65 4 1 60 -15 125 -35z m-1747 -297 c56 -159 100 -290 98 -291 -10 -7
-310 -93 -442 -126 -187 -47 -466 -104 -473 -96 -7 7 30 101 83 206 95 193
252 387 389 486 72 51 226 127 236 117 4 -5 53 -138 109 -296z m3307 179 c259
-101 533 -237 786 -390 l119 -71 -74 -68 c-40 -38 -154 -138 -252 -223 l-180
-156 -35 44 c-196 237 -448 457 -717 623 -52 32 -94 61 -93 64 1 8 292 231
301 231 4 0 70 -24 145 -54z m-3865 -103 c-27 -32 -71 -89 -97 -128 -53 -79
-161 -298 -195 -395 -13 -36 -28 -70 -34 -76 -15 -15 -573 -90 -585 -79 -8 8
302 308 394 381 177 140 547 376 564 359 2 -2 -19 -30 -47 -62z m1808 -182
c109 -86 544 -516 536 -529 -16 -26 -483 -240 -761 -349 -220 -86 -544 -193
-551 -182 -3 6 -68 196 -144 424 l-138 413 117 42 c193 71 452 177 608 249
l148 68 45 -30 c25 -17 88 -64 140 -106z m-2285 11 c-6 -5 -35 -28 -65 -52
-108 -87 -265 -237 -367 -351 l-103 -116 -132 -6 c-72 -4 -133 -5 -135 -3 -10
9 284 223 462 337 182 116 385 230 340 191z m3832 -101 c278 -172 592 -434
713 -595 37 -49 42 -60 30 -70 -284 -221 -653 -472 -969 -659 -77 -46 -86 -49
-95 -33 -158 263 -396 601 -638 903 -6 8 27 31 114 78 186 102 437 253 588
354 74 50 137 91 141 91 3 0 55 -31 116 -69z m1602 -215 c249 -177 481 -377
694 -596 l138 -142 -118 -112 c-179 -170 -312 -289 -488 -436 -88 -73 -167
-140 -176 -147 -14 -12 -24 -1 -84 89 -105 159 -226 325 -341 470 -86 107
-111 147 -134 209 -33 88 -71 166 -129 259 l-40 65 22 18 c128 107 348 299
412 360 93 88 63 92 244 -37z m-4129 -357 c80 -226 146 -414 148 -418 3 -9
-189 -63 -428 -120 -255 -62 -637 -128 -961 -166 l-56 -7 14 124 c25 231 82
517 141 702 l19 60 184 38 c213 43 496 114 654 163 61 19 117 34 125 34 11 1
54 -110 160 -410z m-1174 155 c-41 -106 -107 -457 -131 -694 -10 -91 -22 -168
-27 -171 -24 -15 -494 -38 -775 -39 l-223 0 24 53 c65 147 217 404 345 582
119 166 153 204 186 209 17 2 107 12 200 21 94 10 220 25 280 35 61 10 114 18
119 19 4 1 5 -6 2 -15z m2780 -121 c114 -134 302 -390 451 -614 79 -119 143
-220 143 -225 0 -22 -584 -318 -874 -443 -103 -45 -191 -81 -195 -81 -5 0 -37
42 -72 93 -154 227 -250 330 -402 428 -124 80 -290 153 -333 146 l-33 -6 -40
122 c-23 66 -40 121 -38 122 1 1 87 29 190 63 104 34 286 100 404 148 213 84
604 260 673 302 19 12 40 22 47 22 7 0 42 -35 79 -77z m-3519 24 c-141 -185
-260 -378 -382 -621 l-90 -179 -90 2 c-159 4 -465 30 -465 40 0 4 44 60 97
126 112 138 415 449 554 571 l96 83 119 4 c65 1 134 4 153 5 l33 2 -25 -33z
m5261 -239 c175 -308 188 -583 35 -786 l-25 -33 -64 107 c-117 195 -286 428
-328 451 -52 30 -114 5 -137 -54 -14 -38 -5 -57 96 -193 157 -212 255 -374
369 -610 74 -155 126 -286 126 -318 0 -15 -212 -160 -346 -237 l-32 -18 -46
38 c-25 20 -46 40 -46 44 0 3 -31 39 -69 79 -61 65 -71 72 -105 72 -52 0 -96
-27 -96 -60 -1 -67 -68 -165 -142 -206 -46 -25 -64 -29 -128 -29 -57 0 -85 6
-115 22 -58 31 -105 80 -132 139 -28 62 -50 83 -95 90 -43 7 -93 -31 -103 -79
-20 -95 -120 -163 -234 -160 -116 3 -247 84 -349 216 -83 109 -242 351 -234
358 4 4 95 45 202 90 190 81 612 288 777 383 45 25 85 46 87 46 7 0 120 -191
207 -350 39 -71 74 -130 76 -130 7 0 -97 193 -188 347 -43 75 -79 137 -79 139
0 1 51 33 113 70 281 168 587 372 826 551 68 51 127 93 131 93 3 0 25 -33 48
-72z m-3145 -395 c26 -76 47 -147 46 -158 -4 -42 2 -63 25 -86 16 -17 61 -131
145 -368 66 -190 121 -347 121 -351 0 -8 -284 -96 -468 -145 -406 -107 -969
-214 -1273 -241 l-76 -6 -6 58 c-27 246 -38 886 -19 1069 l7 70 65 8 c217 26
451 63 625 98 187 38 603 140 705 172 25 8 48 15 51 16 3 1 26 -61 52 -136z
m3544 37 c103 -129 243 -320 325 -443 l78 -118 -28 -23 c-116 -95 -422 -323
-447 -332 -7 -3 -43 18 -78 48 -55 45 -70 66 -104 138 l-39 85 49 60 c62 77
113 167 145 258 22 63 25 90 26 207 1 74 -3 155 -7 180 -9 52 -12 54 80 -60z
m-6559 -210 c64 -6 181 -14 259 -18 78 -5 145 -10 147 -13 3 -3 -15 -57 -40
-119 -105 -268 -205 -621 -259 -920 -15 -80 -29 -147 -31 -149 -19 -20 -859
65 -887 90 -20 16 170 408 309 639 83 138 193 304 277 417 69 94 51 88 225 73z
m1484 -317 c-3 -309 6 -574 29 -777 5 -49 8 -90 6 -92 -6 -6 -367 -34 -572
-44 -243 -12 -469 -13 -684 -3 l-153 6 7 46 c39 273 162 701 290 1012 l56 136
327 7 c180 4 390 13 467 20 77 7 160 14 185 14 l45 2 -3 -327z m1859 111 c127
-77 221 -174 357 -372 l52 -76 -32 -14 c-91 -38 -322 -112 -328 -105 -4 4 -54
148 -110 318 -57 171 -105 316 -108 323 -6 16 89 -25 169 -74z m494 -571 l64
-96 -61 -91 c-67 -98 -175 -317 -204 -408 -10 -32 -20 -58 -23 -58 -8 0 -214
620 -208 626 10 10 352 130 360 126 4 -2 37 -47 72 -99z m-354 -379 l117 -331
-24 -99 c-30 -122 -61 -335 -70 -472 -6 -79 -11 -105 -23 -111 -77 -41 -787
-210 -1014 -242 -78 -11 -175 -28 -217 -38 -96 -25 -330 -61 -480 -76 -30 -3
-66 -7 -80 -10 -56 -11 -511 -45 -745 -56 -224 -10 -881 -7 -892 5 -12 12 -24
386 -19 566 9 268 37 597 62 723 l6 27 381 0 c384 0 536 7 855 36 95 9 176 13
179 10 3 -3 16 -88 29 -189 13 -101 30 -220 38 -263 18 -94 15 -53 -19 204
-14 106 -25 207 -25 225 l0 33 138 18 c441 56 1084 195 1497 325 88 28 167 49
175 48 10 -2 53 -110 131 -333z m2760 171 c-3 -129 -74 -207 -190 -207 -50 0
-132 22 -154 42 -4 4 54 46 130 93 76 47 154 97 173 111 19 13 37 22 39 20 2
-2 3 -28 2 -59z m247 -32 c163 -241 231 -556 266 -1241 l5 -93 -357 8 c-196 4
-837 8 -1424 8 l-1068 0 -40 120 c-22 65 -37 122 -32 125 4 4 106 42 227 85
471 168 1052 428 1469 659 91 50 122 63 129 54 6 -10 8 -9 4 3 -3 8 3 21 14
27 16 10 30 5 92 -36 90 -59 175 -85 282 -85 101 -1 174 26 245 90 78 70 117
152 135 286 3 26 8 47 10 47 2 0 22 -26 43 -57z m-2400 -112 c229 -252 518
-307 740 -140 l53 40 41 -36 c54 -49 151 -94 234 -107 142 -24 295 32 400 145
l55 60 30 -29 c28 -27 37 -44 21 -44 -4 0 -73 -36 -152 -80 -199 -110 -541
-283 -742 -374 -336 -151 -931 -378 -947 -360 -5 5 -28 67 -51 137 -41 126
-42 130 -31 190 22 113 69 281 106 372 35 89 152 305 165 305 3 0 39 -36 78
-79z m-4710 -77 c108 -14 306 -34 440 -43 133 -10 245 -20 247 -23 3 -3 -1
-61 -9 -129 -38 -315 -51 -729 -33 -1044 l8 -140 -118 7 c-307 19 -609 51
-935 99 l-148 22 0 28 c0 58 62 391 105 564 73 295 205 685 231 685 8 0 103
-12 212 -26z m4386 -752 c20 -57 34 -107 31 -112 -5 -9 -94 -35 -99 -29 -5 4
10 164 19 218 4 18 8 31 10 30 2 -2 19 -51 39 -107z m93 -262 l42 -120 -73 0
c-41 0 -87 -3 -105 -6 -41 -9 -45 4 -36 121 l7 94 46 15 c77 23 73 26 119
-104z m-370 -126 c-2 -2 -113 -8 -248 -14 -134 -5 -291 -12 -349 -15 l-105 -5
125 31 c149 36 518 135 551 148 24 8 24 8 27 -67 2 -41 1 -76 -1 -78z m2986
-191 l287 -6 0 -454 c0 -498 0 -498 59 -523 38 -15 75 -7 107 25 l24 24 0 460
0 461 123 -6 c644 -29 946 -52 988 -75 53 -28 154 -605 304 -1739 59 -442 161
-1324 375 -3229 39 -343 75 -653 80 -690 5 -36 8 -66 7 -67 -4 -4 -7191 -33
-7197 -29 -3 2 2 77 12 167 21 193 140 1384 198 1988 203 2097 348 3275 436
3543 19 58 26 61 176 81 193 26 1006 75 1027 62 4 -3 11 -219 14 -480 6 -521
7 -521 66 -546 38 -15 75 -7 107 25 l24 25 -6 488 -7 489 78 6 c43 4 108 7
145 7 63 0 67 -1 77 -27 l12 -28 -6 27 -5 28 228 3 c317 5 1917 -2 2267 -10z"/>
<path d="M6865 7960 c25 -49 47 -90 50 -90 3 0 -15 41 -40 90 -25 50 -47 90
-50 90 -3 0 15 -40 40 -90z"/>
<path d="M3112 6835 c0 -16 2 -22 5 -12 2 9 2 23 0 30 -3 6 -5 -1 -5 -18z"/>
<path d="M3122 6775 c0 -16 2 -22 5 -12 2 9 2 23 0 30 -3 6 -5 -1 -5 -18z"/>
<path d="M3132 6715 c0 -16 2 -22 5 -12 2 9 2 23 0 30 -3 6 -5 -1 -5 -18z"/>
<path d="M3142 6660 c0 -14 2 -19 5 -12 2 6 2 18 0 25 -3 6 -5 1 -5 -13z"/>
<path d="M3152 6605 c0 -16 2 -22 5 -12 2 9 2 23 0 30 -3 6 -5 -1 -5 -18z"/>
<path d="M3162 6550 c0 -14 2 -19 5 -12 2 6 2 18 0 25 -3 6 -5 1 -5 -13z"/>
<path d="M3172 6500 c0 -14 2 -19 5 -12 2 6 2 18 0 25 -3 6 -5 1 -5 -13z"/>
<path d="M3182 6450 c0 -14 2 -19 5 -12 2 6 2 18 0 25 -3 6 -5 1 -5 -13z"/>
<path d="M3192 6400 c0 -14 2 -19 5 -12 2 6 2 18 0 25 -3 6 -5 1 -5 -13z"/>
<path d="M3201 6354 c0 -11 3 -14 6 -6 3 7 2 16 -1 19 -3 4 -6 -2 -5 -13z"/>
<path d="M3211 6304 c0 -11 3 -14 6 -6 3 7 2 16 -1 19 -3 4 -6 -2 -5 -13z"/>
<path d="M3221 6254 c0 -11 3 -14 6 -6 3 7 2 16 -1 19 -3 4 -6 -2 -5 -13z"/>
<path d="M3231 6214 c0 -11 3 -14 6 -6 3 7 2 16 -1 19 -3 4 -6 -2 -5 -13z"/>
<path d="M3251 6124 c0 -11 3 -14 6 -6 3 7 2 16 -1 19 -3 4 -6 -2 -5 -13z"/>
<path d="M7190 7285 c0 -5 5 -17 10 -25 5 -8 10 -10 10 -5 0 6 -5 17 -10 25
-5 8 -10 11 -10 5z"/>
<path d="M7221 7215 c0 -5 6 -21 14 -35 8 -14 14 -20 14 -15 0 6 -6 21 -14 35
-8 14 -14 21 -14 15z"/>
<path d="M7250 7145 c0 -5 5 -17 10 -25 5 -8 10 -10 10 -5 0 6 -5 17 -10 25
-5 8 -10 11 -10 5z"/>
<path d="M7300 7025 c0 -5 5 -17 10 -25 5 -8 10 -10 10 -5 0 6 -5 17 -10 25
-5 8 -10 11 -10 5z"/>
<path d="M7320 6975 c0 -5 5 -17 10 -25 5 -8 10 -10 10 -5 0 6 -5 17 -10 25
-5 8 -10 11 -10 5z"/>
<path d="M7340 6925 c0 -5 5 -17 10 -25 5 -8 10 -10 10 -5 0 6 -5 17 -10 25
-5 8 -10 11 -10 5z"/>
<path d="M7360 6875 c0 -5 5 -17 10 -25 5 -8 10 -10 10 -5 0 6 -5 17 -10 25
-5 8 -10 11 -10 5z"/>
<path d="M7380 6825 c0 -5 5 -17 10 -25 5 -8 10 -10 10 -5 0 6 -5 17 -10 25
-5 8 -10 11 -10 5z"/>
<path d="M7080 4569 c-30 -5 -92 -27 -138 -50 -430 -211 -371 -821 92 -954 78
-23 214 -23 292 0 181 52 324 194 370 369 18 65 18 187 0 251 -47 177 -185
317 -365 371 -59 18 -184 25 -251 13z m87 -111 c27 -11 25 -12 -35 -19 -86
-11 -142 -40 -203 -107 -75 -82 -113 -168 -113 -257 -1 -49 5 -80 18 -105 l19
-35 -21 18 c-39 35 -66 116 -67 197 0 62 5 85 28 132 34 70 110 140 180 167
59 22 151 27 194 9z"/>
<path d="M6045 3780 c-141 -13 -142 -13 -149 -57 -27 -174 -215 -1888 -207
-1896 16 -16 425 9 516 32 241 63 404 222 466 458 30 113 30 287 0 364 -25 66
-83 136 -135 164 -20 11 -36 23 -36 26 0 4 19 18 43 32 89 53 178 171 206 274
74 272 -6 510 -195 583 -52 21 -79 24 -234 26 -96 1 -220 -2 -275 -6z m341
-279 c79 -36 112 -144 84 -283 -31 -161 -131 -253 -288 -266 l-65 -5 5 29 c3
16 19 145 34 287 l29 257 80 0 c56 0 92 -6 121 -19z m-89 -784 c18 -9 45 -34
60 -54 24 -31 29 -48 32 -114 6 -139 -30 -240 -114 -324 -55 -56 -124 -85
-202 -85 l-44 0 5 33 c3 17 17 138 31 267 14 129 28 250 31 269 l5 33 82 -4
c49 -3 95 -11 114 -21z"/>
<path d="M4650 3771 c-69 -6 -75 -8 -82 -31 -11 -36 -148 -1251 -157 -1392
-17 -263 32 -401 172 -483 105 -61 287 -74 423 -29 174 56 271 181 328 423 27
112 179 1413 174 1481 l-3 35 -145 -3 c-80 -2 -149 -7 -153 -12 -5 -4 -42
-304 -83 -666 -81 -720 -86 -765 -109 -840 -32 -107 -95 -161 -174 -148 -78
13 -121 69 -121 161 0 26 36 371 81 767 44 395 78 725 75 732 -6 15 -75 16
-226 5z"/>
<path d="M7537 2495 c-45 -16 -83 -48 -104 -89 -22 -42 -11 -168 22 -271 55
-171 55 -228 -1 -251 -18 -8 -44 -14 -58 -14 -31 0 -34 -5 -42 -75 l-7 -58 59
8 c114 13 182 62 205 148 15 56 6 130 -30 256 -43 148 -48 187 -26 211 10 11
28 20 40 20 35 0 52 22 59 78 l7 52 -43 0 c-24 -1 -60 -7 -81 -15z"/>
<path d="M8395 2487 c-78 -43 -129 -207 -144 -457 -9 -145 0 -198 38 -239 71
-76 224 -58 280 32 46 74 83 276 85 463 1 113 -1 122 -24 157 -14 20 -39 44
-57 52 -47 23 -130 19 -178 -8z m120 -107 c23 -25 22 -114 -1 -303 -16 -137
-25 -171 -51 -199 -22 -24 -70 -23 -83 1 -14 28 -13 124 5 276 17 147 28 190
58 223 25 27 48 28 72 2z"/>
<path d="M8862 2503 c-18 -3 -35 -10 -37 -16 -5 -12 -85 -700 -85 -724 0 -9
18 -13 59 -13 68 0 61 -15 82 176 l11 112 57 6 c71 8 135 39 166 80 32 42 55
134 55 217 0 78 -24 123 -80 151 -34 17 -136 22 -228 11z m159 -122 c21 -17
24 -28 23 -83 -1 -83 -22 -124 -72 -137 -71 -20 -69 -25 -51 139 l12 100 32 0
c18 0 43 -9 56 -19z"/>
<path d="M7800 2497 c0 -1 -18 -159 -40 -351 -22 -191 -40 -359 -40 -373 0
-23 2 -24 57 -21 l58 3 6 40 c4 22 12 93 19 157 l12 116 60 4 c33 2 61 2 62 1
2 -2 -15 -166 -29 -275 l-6 -48 60 0 c72 0 58 -49 106 385 20 176 38 330 41
343 4 22 3 23 -58 20 l-63 -3 -17 -140 c-9 -77 -17 -146 -17 -152 -1 -9 -20
-13 -61 -13 -70 0 -66 -15 -45 160 8 69 15 131 15 138 0 8 -19 12 -60 12 -33
0 -60 -1 -60 -3z"/>
<path d="M3271 6044 c0 -11 3 -14 6 -6 3 7 2 16 -1 19 -3 4 -6 -2 -5 -13z"/>
</g>
</svg>
